<?xml version="1.0" standalone="no"?>
<!DOCTYPE svg PUBLIC "-//W3C//DTD SVG 20010904//EN"
 "http://www.w3.org/TR/2001/REC-SVG-20010904/DTD/svg10.dtd">
<svg version="1.0" xmlns="http://www.w3.org/2000/svg"
 width="192.000000pt" height="192.000000pt" viewBox="0 0 192.000000 192.000000"
 preserveAspectRatio="xMidYMid meet">
<metadata>
Created by potrace 1.11, written by Peter Selinger 2001-2013
</metadata>
<g transform="translate(0.000000,192.000000) scale(0.100000,-0.100000)"
fill="#000000" stroke="none">
<path d="M892 1453 c-115 -111 -145 -134 -171 -131 -21 2 -25 9 -26 33 l0 30
-107 3 c-88 2 -108 5 -108 18 0 8 -6 17 -14 20 -8 3 -16 14 -19 25 -7 28 -67
27 -67 -1 0 -11 -7 -20 -15 -20 -8 0 -15 -9 -15 -20 0 -18 -7 -20 -85 -20
l-85 0 0 -35 0 -35 -50 0 c-48 0 -50 -1 -50 -29 0 -16 -7 -34 -15 -41 -18 -15
-19 -44 -2 -62 10 -10 13 -88 13 -360 -1 -229 3 -351 9 -357 7 -7 142 -13 370
-17 281 -5 372 -10 415 -22 66 -18 247 -21 305 -4 27 8 144 12 352 12 l313 0
7 28 c4 15 7 176 8 357 0 236 3 334 12 342 11 12 7 53 -7 63 -3 3 -12 24 -18
48 l-13 42 -54 0 c-64 0 -115 25 -115 56 0 18 -8 22 -54 28 -30 3 -81 3 -115
0 -55 -6 -61 -9 -61 -30 0 -43 -102 -75 -112 -36 -3 10 -30 35 -61 56 -31 20
-71 55 -89 76 l-31 40 -93 0 -93 0 -59 -57z"/>
</g>
</svg>
